<mxfile host="app.diagrams.net" modified="2021-05-22T13:09:51.439Z" agent="5.0 (Macintosh; Intel Mac OS X 10_15_7) AppleWebKit/537.36 (KHTML, like Gecko) Chrome/90.0.4430.212 Safari/537.36" etag="UsojjyZf4n9arJeMFfaK" version="14.6.12" type="github">
  <diagram id="C5RBs43oDa-KdzZeNtuy" name="Page-1">
    <mxGraphModel dx="2253" dy="771" grid="1" gridSize="10" guides="1" tooltips="1" connect="1" arrows="1" fold="1" page="1" pageScale="1" pageWidth="827" pageHeight="1169" math="0" shadow="0">
      <root>
        <mxCell id="WIyWlLk6GJQsqaUBKTNV-0" />
        <mxCell id="WIyWlLk6GJQsqaUBKTNV-1" parent="WIyWlLk6GJQsqaUBKTNV-0" />
        <mxCell id="cxGSCQVcs1KOMOcaWvu9-14" value="" style="edgeStyle=orthogonalEdgeStyle;rounded=0;orthogonalLoop=1;jettySize=auto;html=1;" edge="1" parent="WIyWlLk6GJQsqaUBKTNV-1" source="cxGSCQVcs1KOMOcaWvu9-0" target="cxGSCQVcs1KOMOcaWvu9-4">
          <mxGeometry relative="1" as="geometry" />
        </mxCell>
        <mxCell id="cxGSCQVcs1KOMOcaWvu9-0" value="Native" style="rounded=1;whiteSpace=wrap;html=1;" vertex="1" parent="WIyWlLk6GJQsqaUBKTNV-1">
          <mxGeometry x="37" y="130" width="100" height="60" as="geometry" />
        </mxCell>
        <mxCell id="cxGSCQVcs1KOMOcaWvu9-15" value="" style="edgeStyle=orthogonalEdgeStyle;rounded=0;orthogonalLoop=1;jettySize=auto;html=1;" edge="1" parent="WIyWlLk6GJQsqaUBKTNV-1" source="cxGSCQVcs1KOMOcaWvu9-4">
          <mxGeometry relative="1" as="geometry">
            <mxPoint x="317" y="160" as="targetPoint" />
          </mxGeometry>
        </mxCell>
        <mxCell id="cxGSCQVcs1KOMOcaWvu9-4" value="获取图片" style="rounded=1;whiteSpace=wrap;html=1;" vertex="1" parent="WIyWlLk6GJQsqaUBKTNV-1">
          <mxGeometry x="177" y="130" width="100" height="60" as="geometry" />
        </mxCell>
        <mxCell id="cxGSCQVcs1KOMOcaWvu9-12" value="" style="edgeStyle=orthogonalEdgeStyle;rounded=0;orthogonalLoop=1;jettySize=auto;html=1;" edge="1" parent="WIyWlLk6GJQsqaUBKTNV-1" source="cxGSCQVcs1KOMOcaWvu9-6" target="cxGSCQVcs1KOMOcaWvu9-11">
          <mxGeometry relative="1" as="geometry">
            <Array as="points">
              <mxPoint x="627" y="80" />
            </Array>
          </mxGeometry>
        </mxCell>
        <mxCell id="cxGSCQVcs1KOMOcaWvu9-6" value="在Native中&lt;br&gt;下载图片" style="rounded=1;whiteSpace=wrap;html=1;" vertex="1" parent="WIyWlLk6GJQsqaUBKTNV-1">
          <mxGeometry x="437" y="50" width="100" height="60" as="geometry" />
        </mxCell>
        <mxCell id="cxGSCQVcs1KOMOcaWvu9-7" value="解码并显示图片" style="rounded=1;whiteSpace=wrap;html=1;" vertex="1" parent="WIyWlLk6GJQsqaUBKTNV-1">
          <mxGeometry x="437" y="210" width="100" height="60" as="geometry" />
        </mxCell>
        <mxCell id="cxGSCQVcs1KOMOcaWvu9-25" style="edgeStyle=orthogonalEdgeStyle;rounded=0;orthogonalLoop=1;jettySize=auto;html=1;entryX=1;entryY=0.5;entryDx=0;entryDy=0;" edge="1" parent="WIyWlLk6GJQsqaUBKTNV-1" source="cxGSCQVcs1KOMOcaWvu9-11" target="cxGSCQVcs1KOMOcaWvu9-7">
          <mxGeometry relative="1" as="geometry">
            <Array as="points">
              <mxPoint x="627" y="240" />
            </Array>
          </mxGeometry>
        </mxCell>
        <mxCell id="cxGSCQVcs1KOMOcaWvu9-11" value="缓存到Native&lt;br&gt;图片池" style="rounded=1;whiteSpace=wrap;html=1;" vertex="1" parent="WIyWlLk6GJQsqaUBKTNV-1">
          <mxGeometry x="577" y="130" width="100" height="60" as="geometry" />
        </mxCell>
        <mxCell id="cxGSCQVcs1KOMOcaWvu9-21" style="edgeStyle=orthogonalEdgeStyle;rounded=0;orthogonalLoop=1;jettySize=auto;html=1;entryX=0;entryY=0.5;entryDx=0;entryDy=0;" edge="1" parent="WIyWlLk6GJQsqaUBKTNV-1" source="cxGSCQVcs1KOMOcaWvu9-20" target="cxGSCQVcs1KOMOcaWvu9-7">
          <mxGeometry relative="1" as="geometry">
            <Array as="points">
              <mxPoint x="357" y="240" />
            </Array>
          </mxGeometry>
        </mxCell>
        <mxCell id="cxGSCQVcs1KOMOcaWvu9-22" value="有缓存" style="edgeLabel;html=1;align=center;verticalAlign=middle;resizable=0;points=[];" vertex="1" connectable="0" parent="cxGSCQVcs1KOMOcaWvu9-21">
          <mxGeometry x="0.3167" y="-2" relative="1" as="geometry">
            <mxPoint as="offset" />
          </mxGeometry>
        </mxCell>
        <mxCell id="cxGSCQVcs1KOMOcaWvu9-23" style="edgeStyle=orthogonalEdgeStyle;rounded=0;orthogonalLoop=1;jettySize=auto;html=1;entryX=0;entryY=0.5;entryDx=0;entryDy=0;" edge="1" parent="WIyWlLk6GJQsqaUBKTNV-1" source="cxGSCQVcs1KOMOcaWvu9-20" target="cxGSCQVcs1KOMOcaWvu9-6">
          <mxGeometry relative="1" as="geometry">
            <Array as="points">
              <mxPoint x="357" y="80" />
            </Array>
          </mxGeometry>
        </mxCell>
        <mxCell id="cxGSCQVcs1KOMOcaWvu9-24" value="无缓存" style="edgeLabel;html=1;align=center;verticalAlign=middle;resizable=0;points=[];" vertex="1" connectable="0" parent="cxGSCQVcs1KOMOcaWvu9-23">
          <mxGeometry x="0.3333" y="3" relative="1" as="geometry">
            <mxPoint as="offset" />
          </mxGeometry>
        </mxCell>
        <mxCell id="cxGSCQVcs1KOMOcaWvu9-20" value="查找Native&lt;br&gt;缓存" style="rhombus;whiteSpace=wrap;html=1;" vertex="1" parent="WIyWlLk6GJQsqaUBKTNV-1">
          <mxGeometry x="317" y="120" width="80" height="80" as="geometry" />
        </mxCell>
        <mxCell id="cxGSCQVcs1KOMOcaWvu9-27" value="" style="endArrow=classic;html=1;" edge="1" parent="WIyWlLk6GJQsqaUBKTNV-1">
          <mxGeometry width="50" height="50" relative="1" as="geometry">
            <mxPoint x="-3" y="300" as="sourcePoint" />
            <mxPoint x="827" y="300" as="targetPoint" />
          </mxGeometry>
        </mxCell>
        <mxCell id="cxGSCQVcs1KOMOcaWvu9-28" value="" style="edgeStyle=orthogonalEdgeStyle;rounded=0;orthogonalLoop=1;jettySize=auto;html=1;" edge="1" parent="WIyWlLk6GJQsqaUBKTNV-1" source="cxGSCQVcs1KOMOcaWvu9-29" target="cxGSCQVcs1KOMOcaWvu9-31">
          <mxGeometry relative="1" as="geometry" />
        </mxCell>
        <mxCell id="cxGSCQVcs1KOMOcaWvu9-29" value="Flutter" style="rounded=1;whiteSpace=wrap;html=1;" vertex="1" parent="WIyWlLk6GJQsqaUBKTNV-1">
          <mxGeometry x="37" y="410" width="100" height="60" as="geometry" />
        </mxCell>
        <mxCell id="cxGSCQVcs1KOMOcaWvu9-30" value="" style="edgeStyle=orthogonalEdgeStyle;rounded=0;orthogonalLoop=1;jettySize=auto;html=1;" edge="1" parent="WIyWlLk6GJQsqaUBKTNV-1" source="cxGSCQVcs1KOMOcaWvu9-31">
          <mxGeometry relative="1" as="geometry">
            <mxPoint x="317" y="440" as="targetPoint" />
          </mxGeometry>
        </mxCell>
        <mxCell id="cxGSCQVcs1KOMOcaWvu9-31" value="获取图片" style="rounded=1;whiteSpace=wrap;html=1;" vertex="1" parent="WIyWlLk6GJQsqaUBKTNV-1">
          <mxGeometry x="177" y="410" width="100" height="60" as="geometry" />
        </mxCell>
        <mxCell id="cxGSCQVcs1KOMOcaWvu9-32" value="" style="edgeStyle=orthogonalEdgeStyle;rounded=0;orthogonalLoop=1;jettySize=auto;html=1;" edge="1" parent="WIyWlLk6GJQsqaUBKTNV-1" source="cxGSCQVcs1KOMOcaWvu9-33" target="cxGSCQVcs1KOMOcaWvu9-36">
          <mxGeometry relative="1" as="geometry">
            <Array as="points">
              <mxPoint x="627" y="360" />
            </Array>
          </mxGeometry>
        </mxCell>
        <mxCell id="cxGSCQVcs1KOMOcaWvu9-33" value="在Flutter中&lt;br&gt;下载图片" style="rounded=1;whiteSpace=wrap;html=1;" vertex="1" parent="WIyWlLk6GJQsqaUBKTNV-1">
          <mxGeometry x="437" y="330" width="100" height="60" as="geometry" />
        </mxCell>
        <mxCell id="cxGSCQVcs1KOMOcaWvu9-34" value="解码并显示图片" style="rounded=1;whiteSpace=wrap;html=1;" vertex="1" parent="WIyWlLk6GJQsqaUBKTNV-1">
          <mxGeometry x="437" y="490" width="100" height="60" as="geometry" />
        </mxCell>
        <mxCell id="cxGSCQVcs1KOMOcaWvu9-35" style="edgeStyle=orthogonalEdgeStyle;rounded=0;orthogonalLoop=1;jettySize=auto;html=1;entryX=1;entryY=0.5;entryDx=0;entryDy=0;" edge="1" parent="WIyWlLk6GJQsqaUBKTNV-1" source="cxGSCQVcs1KOMOcaWvu9-36" target="cxGSCQVcs1KOMOcaWvu9-34">
          <mxGeometry relative="1" as="geometry">
            <Array as="points">
              <mxPoint x="627" y="520" />
            </Array>
          </mxGeometry>
        </mxCell>
        <mxCell id="cxGSCQVcs1KOMOcaWvu9-36" value="缓存到Flutter&lt;br&gt;图片池" style="rounded=1;whiteSpace=wrap;html=1;" vertex="1" parent="WIyWlLk6GJQsqaUBKTNV-1">
          <mxGeometry x="577" y="410" width="100" height="60" as="geometry" />
        </mxCell>
        <mxCell id="cxGSCQVcs1KOMOcaWvu9-37" style="edgeStyle=orthogonalEdgeStyle;rounded=0;orthogonalLoop=1;jettySize=auto;html=1;entryX=0;entryY=0.5;entryDx=0;entryDy=0;" edge="1" parent="WIyWlLk6GJQsqaUBKTNV-1" source="cxGSCQVcs1KOMOcaWvu9-41" target="cxGSCQVcs1KOMOcaWvu9-34">
          <mxGeometry relative="1" as="geometry">
            <Array as="points">
              <mxPoint x="357" y="520" />
            </Array>
          </mxGeometry>
        </mxCell>
        <mxCell id="cxGSCQVcs1KOMOcaWvu9-38" value="有缓存" style="edgeLabel;html=1;align=center;verticalAlign=middle;resizable=0;points=[];" vertex="1" connectable="0" parent="cxGSCQVcs1KOMOcaWvu9-37">
          <mxGeometry x="0.3167" y="-2" relative="1" as="geometry">
            <mxPoint as="offset" />
          </mxGeometry>
        </mxCell>
        <mxCell id="cxGSCQVcs1KOMOcaWvu9-39" style="edgeStyle=orthogonalEdgeStyle;rounded=0;orthogonalLoop=1;jettySize=auto;html=1;entryX=0;entryY=0.5;entryDx=0;entryDy=0;" edge="1" parent="WIyWlLk6GJQsqaUBKTNV-1" source="cxGSCQVcs1KOMOcaWvu9-41" target="cxGSCQVcs1KOMOcaWvu9-33">
          <mxGeometry relative="1" as="geometry">
            <Array as="points">
              <mxPoint x="357" y="360" />
            </Array>
          </mxGeometry>
        </mxCell>
        <mxCell id="cxGSCQVcs1KOMOcaWvu9-40" value="无缓存" style="edgeLabel;html=1;align=center;verticalAlign=middle;resizable=0;points=[];" vertex="1" connectable="0" parent="cxGSCQVcs1KOMOcaWvu9-39">
          <mxGeometry x="0.3333" y="3" relative="1" as="geometry">
            <mxPoint as="offset" />
          </mxGeometry>
        </mxCell>
        <mxCell id="cxGSCQVcs1KOMOcaWvu9-41" value="查找Flutter&lt;br&gt;缓存" style="rhombus;whiteSpace=wrap;html=1;" vertex="1" parent="WIyWlLk6GJQsqaUBKTNV-1">
          <mxGeometry x="317" y="400" width="80" height="80" as="geometry" />
        </mxCell>
      </root>
    </mxGraphModel>
  </diagram>
</mxfile>
